<?xml version="1.0" standalone="no"?>
<!DOCTYPE svg PUBLIC "-//W3C//DTD SVG 20010904//EN"
 "http://www.w3.org/TR/2001/REC-SVG-20010904/DTD/svg10.dtd">
<svg version="1.0" xmlns="http://www.w3.org/2000/svg"
 width="100.000000pt" height="100.000000pt" viewBox="0 0 100.000000 100.000000"
 preserveAspectRatio="xMidYMid meet">

<g transform="translate(0.000000,100.000000) scale(0.100000,-0.100000)"
fill="#000000" stroke="none">
<path d="M5 947 c-3 -6 -4 -185 -3 -396 l3 -384 128 -65 129 -64 120 59 121
60 128 -59 129 -60 118 64 117 63 0 275 c0 238 -2 275 -15 275 -13 0 -16 -38
-20 -263 l-5 -263 -98 -53 -99 -53 -130 60 -130 60 -108 -56 c-60 -32 -116
-57 -124 -57 -9 0 -63 24 -121 52 l-105 53 0 352 c0 194 2 353 4 353 3 0 52
-23 110 -51 l104 -51 120 61 120 60 91 -41 c71 -32 94 -39 103 -30 16 16 8 22
-101 72 l-94 43 -119 -59 -118 -58 -115 57 c-123 61 -133 64 -140 44z"/>
<path d="M644 738 l-223 -221 -21 -80 c-14 -49 -18 -83 -12 -89 6 -6 39 -2 88
11 l78 20 223 223 c236 237 239 242 211 303 -7 15 -24 33 -39 41 -63 32 -68
29 -305 -208z m243 110 c18 -18 33 -37 33 -43 0 -5 -85 -96 -190 -200 l-190
-190 -42 43 -43 42 190 190 c104 105 194 190 199 190 6 0 25 -14 43 -32z"/>
</g>
</svg>
